<svg width="68" height="24" viewBox="0 0 68 24" fill="none" xmlns="http://www.w3.org/2000/svg">
<path d="M12.8555 7.48193V7.51192V23.5556H16.9313V7.48193H12.8555Z" fill="#FFFCF4"/>
<path d="M63.9258 7.48193V7.51192V23.5556H68.0016V7.48193H63.9258Z" fill="#FFFCF4"/>
<path d="M35.5595 17.1981H23.407C23.9465 19.2223 25.4599 20.1969 27.9024 20.1969C28.5891 20.2416 29.2764 20.119 29.9054 19.8395C30.5343 19.5601 31.0862 19.1322 31.5137 18.5926L34.8702 20.5268C34.0978 21.6518 33.0508 22.5606 31.8287 23.1668C30.6066 23.773 29.2498 24.0565 27.8874 23.9904C26.7106 24.0448 25.5351 23.8588 24.4324 23.4438C23.3298 23.0288 22.3232 22.3934 21.474 21.5764C20.6746 20.7788 20.0469 19.8259 19.6294 18.7764C19.2119 17.7268 19.0135 16.6029 19.0465 15.4738C19.0298 14.3651 19.2331 13.2641 19.6447 12.2346C20.0562 11.205 20.6678 10.2675 21.444 9.47613C22.2367 8.66083 23.1922 8.02181 24.2481 7.6007C25.3041 7.17959 26.4369 6.98585 27.5727 7.03208C28.6636 6.98993 29.7505 7.18683 30.7574 7.609C31.7642 8.03116 32.6667 8.66841 33.4017 9.47613C34.9495 11.1124 35.7848 13.2966 35.7243 15.5487C35.7075 16.1017 35.6524 16.6528 35.5595 17.1981ZM23.3471 13.9744H31.5586C31.406 13.0373 30.9168 12.1882 30.1829 11.5863C29.4491 10.9845 28.5209 10.6714 27.5727 10.7056C26.5781 10.6644 25.5995 10.9661 24.8006 11.5603C24.0448 12.1666 23.5295 13.0224 23.3471 13.9744Z" fill="#FFFCF4"/>
<path d="M41.9737 23.5558H37.793V0H41.9737V23.5558Z" fill="#FFFCF4"/>
<path d="M48.9235 23.5558H44.7578V0H48.9235V23.5558Z" fill="#FFFCF4"/>
<path d="M16.8726 15.519C16.8756 17.1892 16.3833 18.8228 15.4581 20.213C14.5329 21.6032 13.2164 22.6875 11.6751 23.3288C10.1339 23.97 8.43714 24.1393 6.79967 23.8153C5.1622 23.4913 3.65759 22.6885 2.47625 21.5085C1.29491 20.3285 0.489938 18.8243 0.163205 17.1864C-0.163529 15.5485 0.00266136 13.8503 0.640744 12.307C1.27883 10.7636 2.36012 9.44427 3.74779 8.51602C5.13545 7.58776 6.76712 7.09229 8.43631 7.09229C10.6712 7.09228 12.8147 7.97961 14.3964 9.5595C15.9781 11.1394 16.8687 13.2827 16.8726 15.519ZM4.12075 15.519C4.12075 16.3731 4.37385 17.208 4.84805 17.9181C5.32225 18.6283 5.99625 19.1817 6.78481 19.5086C7.57338 19.8354 8.44109 19.9209 9.27823 19.7543C10.1154 19.5877 10.8843 19.1764 11.4879 18.5725C12.0914 17.9686 12.5024 17.1991 12.6689 16.3614C12.8355 15.5238 12.75 14.6555 12.4234 13.8664C12.0967 13.0774 11.5436 12.4029 10.8339 11.9284C10.1242 11.4539 9.28984 11.2007 8.43631 11.2007C7.29175 11.2007 6.19407 11.6556 5.38475 12.4655C4.57542 13.2753 4.12075 14.3737 4.12075 15.519Z" fill="#D8A28F"/>
<path d="M67.939 15.519C67.942 17.1892 67.4497 18.8228 66.5245 20.213C65.5994 21.6032 64.2828 22.6875 62.7416 23.3288C61.2003 23.97 59.5035 24.1393 57.8661 23.8153C56.2286 23.4913 54.724 22.6885 53.5427 21.5085C52.3613 20.3285 51.5563 18.8243 51.2296 17.1864C50.9029 15.5485 51.0691 13.8503 51.7072 12.307C52.3452 10.7636 53.4265 9.44427 54.8142 8.51602C56.2019 7.58776 57.8335 7.09229 59.5027 7.09229C61.7376 7.09228 63.8811 7.97961 65.4628 9.5595C67.0445 11.1394 67.9351 13.2827 67.939 15.519ZM55.1872 15.519C55.1872 16.3731 55.4403 17.208 55.9145 17.9181C56.3887 18.6283 57.0627 19.1817 57.8512 19.5086C58.6398 19.8354 59.5075 19.9209 60.3446 19.7543C61.1818 19.5877 61.9507 19.1764 62.5543 18.5725C63.1578 17.9686 63.5688 17.1991 63.7354 16.3614C63.9019 15.5238 63.8164 14.6555 63.4898 13.8664C63.1631 13.0774 62.61 12.4029 61.9003 11.9284C61.1906 11.4539 60.3563 11.2007 59.5027 11.2007C58.3594 11.2046 57.264 11.6609 56.4555 12.4698C55.647 13.2788 55.1911 14.3749 55.1872 15.519Z" fill="#D8A28F"/>
</svg>
